<?xml version="1.0" encoding="UTF-8"?>
<svg viewBox="0 0 20.87 20.87" xmlns="http://www.w3.org/2000/svg">
<g data-name="Camada 2">
<g fill="#fff" data-name="Capa 1">
<path d="M10.43,1.88c2.79,0,3.12,0,4.22.06a6,6,0,0,1,1.94.36,3.45,3.45,0,0,1,2,2,6,6,0,0,1,.36,1.94c.05,1.1.06,1.43.06,4.21s0,3.12-.06,4.22a6,6,0,0,1-.36,1.94,3.45,3.45,0,0,1-2,2,6,6,0,0,1-1.94.36c-1.1.05-1.43.06-4.22.06s-3.11,0-4.21-.06a6,6,0,0,1-1.94-.36,3.45,3.45,0,0,1-2-2,6,6,0,0,1-.36-1.94c-.05-1.1-.06-1.43-.06-4.22s0-3.11.06-4.21A6,6,0,0,1,2.3,4.28a3.45,3.45,0,0,1,2-2,6,6,0,0,1,1.94-.36c1.1-.05,1.43-.06,4.21-.06m0-1.88C7.6,0,7.25,0,6.13.06A7.54,7.54,0,0,0,3.6.55a5,5,0,0,0-1.85,1.2A5,5,0,0,0,.55,3.6,7.54,7.54,0,0,0,.06,6.13C0,7.25,0,7.6,0,10.43s0,3.19.06,4.31a7.54,7.54,0,0,0,.49,2.53,5,5,0,0,0,1.2,1.85,5.12,5.12,0,0,0,1.85,1.2,7.54,7.54,0,0,0,2.53.49c1.12.05,1.47.06,4.3.06s3.19,0,4.31-.06a7.54,7.54,0,0,0,2.53-.49,5.29,5.29,0,0,0,3.05-3.05,7.54,7.54,0,0,0,.49-2.53c.05-1.12.06-1.47.06-4.31s0-3.18-.06-4.3a7.54,7.54,0,0,0-.49-2.53,5.12,5.12,0,0,0-1.2-1.85A5,5,0,0,0,17.27.55,7.54,7.54,0,0,0,14.74.06C13.62,0,13.27,0,10.43,0"/>
<path d="M10.43,5.08a5.36,5.36,0,1,0,5.36,5.35,5.36,5.36,0,0,0-5.36-5.35m0,8.83a3.48,3.48,0,1,1,3.48-3.48,3.47,3.47,0,0,1-3.48,3.48"/>
<path d="M17.26,4.86A1.26,1.26,0,1,1,16,3.61a1.25,1.25,0,0,1,1.26,1.25"/>
</g>
</g>
</svg>
