<?xml version="1.0" encoding="UTF-8"?>
<svg viewBox="0 0 30.46 21.46" xmlns="http://www.w3.org/2000/svg">
<g data-name="Camada 2">
<g data-name="Capa 1">
<path d="M29.82,3.35A3.82,3.82,0,0,0,27.13.64C24.76,0,15.23,0,15.23,0S5.71,0,3.33.64A3.82,3.82,0,0,0,.64,3.35,39.94,39.94,0,0,0,0,10.73a39.94,39.94,0,0,0,.64,7.38,3.82,3.82,0,0,0,2.69,2.71c2.38.64,11.9.64,11.9.64s9.53,0,11.9-.64a3.82,3.82,0,0,0,2.69-2.71,39.94,39.94,0,0,0,.64-7.38A39.94,39.94,0,0,0,29.82,3.35Z" fill="#fff"/>
<polygon points="12.12 15.26 12.12 6.2 20.08 10.73" fill="#222221"/>
</g>
</g>
</svg>
